<svg xmlns="http://www.w3.org/2000/svg">
    <symbol id="house" viewBox="0 0 576 512">
        <!--!Font
        Awesome Free 6.5.1 by @fontawesome - https://fontawesome.com License -
        https://fontawesome.com/license/free Copyright 2023 Fonticons, Inc.-->
        <path
            d="M575.8 255.5c0 18-15 32.1-32 32.1h-32l.7 160.2c0 2.7-.2 5.4-.5 8.1V472c0 22.1-17.9 40-40 40H456c-1.1 0-2.2 0-3.3-.1c-1.4 .1-2.8 .1-4.2 .1H416 392c-22.1 0-40-17.9-40-40V448 384c0-17.7-14.3-32-32-32H256c-17.7 0-32 14.3-32 32v64 24c0 22.1-17.9 40-40 40H160 128.1c-1.5 0-3-.1-4.5-.2c-1.2 .1-2.4 .2-3.6 .2H104c-22.1 0-40-17.9-40-40V360c0-.9 0-1.9 .1-2.8V287.6H32c-18 0-32-14-32-32.1c0-9 3-17 10-24L266.4 8c7-7 15-8 22-8s15 2 21 7L564.8 231.5c8 7 12 15 11 24z" />
    </symbol>
    <symbol id="infinity" viewBox="0 0 640 512">
        <!--!Font
        Awesome Free 6.5.1 by @fontawesome - https://fontawesome.com License -
        https://fontawesome.com/license/free Copyright 2023 Fonticons, Inc.-->
        <path
            d="M0 241.1C0 161 65 96 145.1 96c38.5 0 75.4 15.3 102.6 42.5L320 210.7l72.2-72.2C419.5 111.3 456.4 96 494.9 96C575 96 640 161 640 241.1v29.7C640 351 575 416 494.9 416c-38.5 0-75.4-15.3-102.6-42.5L320 301.3l-72.2 72.2C220.5 400.7 183.6 416 145.1 416C65 416 0 351 0 270.9V241.1zM274.7 256l-72.2-72.2c-15.2-15.2-35.9-23.8-57.4-23.8C100.3 160 64 196.3 64 241.1v29.7c0 44.8 36.3 81.1 81.1 81.1c21.5 0 42.2-8.5 57.4-23.8L274.7 256zm90.5 0l72.2 72.2c15.2 15.2 35.9 23.8 57.4 23.8c44.8 0 81.1-36.3 81.1-81.1V241.1c0-44.8-36.3-81.1-81.1-81.1c-21.5 0-42.2 8.5-57.4 23.8L365.3 256z" />
    </symbol>
    <symbol id="shopify" viewBox="0 0 448 512">
        <!--!Font
        Awesome Free 6.5.1 by @fontawesome - https://fontawesome.com License -
        https://fontawesome.com/license/free Copyright 2023 Fonticons, Inc.-->
        <path
            d="M388.3 104.1a4.7 4.7 0 0 0 -4.4-4c-2 0-37.2-.8-37.2-.8s-21.6-20.8-29.6-28.8V503.2L442.8 472S388.7 106.5 388.3 104.1zM288.7 70.5a116.7 116.7 0 0 0 -7.2-17.6C271 32.9 255.4 22 237 22a15 15 0 0 0 -4 .4c-.4-.8-1.2-1.2-1.6-2C223.4 11.6 213 7.6 200.6 8c-24 .8-48 18-67.3 48.8-13.6 21.6-24 48.8-26.8 70.1-27.6 8.4-46.8 14.4-47.2 14.8-14 4.4-14.4 4.8-16 18-1.2 10-38 291.8-38 291.8L307.9 504V65.7a41.7 41.7 0 0 0 -4.4 .4S297.9 67.7 288.7 70.5zM233.4 87.7c-16 4.8-33.6 10.4-50.8 15.6 4.8-18.8 14.4-37.6 25.6-50 4.4-4.4 10.4-9.6 17.2-12.8C232.2 54.9 233.8 74.5 233.4 87.7zM200.6 24.4A27.5 27.5 0 0 1 215 28c-6.4 3.2-12.8 8.4-18.8 14.4-15.2 16.4-26.8 42-31.6 66.5-14.4 4.4-28.8 8.8-42 12.8C131.3 83.3 163.8 25.2 200.6 24.4zM154.2 244.6c1.6 25.6 69.3 31.2 73.3 91.7 2.8 47.6-25.2 80.1-65.7 82.5-48.8 3.2-75.7-25.6-75.7-25.6l10.4-44s26.8 20.4 48.4 18.8c14-.8 19.2-12.4 18.8-20.4-2-33.6-57.2-31.6-60.8-86.9-3.2-46.4 27.2-93.3 94.5-97.7 26-1.6 39.2 4.8 39.2 4.8L221.4 225.4s-17.2-8-37.6-6.4C154.2 221 153.8 239.8 154.2 244.6zM249.4 82.9c0-12-1.6-29.2-7.2-43.6 18.4 3.6 27.2 24 31.2 36.4Q262.6 78.7 249.4 82.9z" />
    </symbol>
    <symbol id="file-lines" viewBox="0 0 384 512">
        <!--!Font
        Awesome Free 6.5.1 by @fontawesome - https://fontawesome.com License -
        https://fontawesome.com/license/free Copyright 2023 Fonticons, Inc.-->
        <path
            d="M64 464c-8.8 0-16-7.2-16-16V64c0-8.8 7.2-16 16-16H224v80c0 17.7 14.3 32 32 32h80V448c0 8.8-7.2 16-16 16H64zM64 0C28.7 0 0 28.7 0 64V448c0 35.3 28.7 64 64 64H320c35.3 0 64-28.7 64-64V154.5c0-17-6.7-33.3-18.7-45.3L274.7 18.7C262.7 6.7 246.5 0 229.5 0H64zm56 256c-13.3 0-24 10.7-24 24s10.7 24 24 24H264c13.3 0 24-10.7 24-24s-10.7-24-24-24H120zm0 96c-13.3 0-24 10.7-24 24s10.7 24 24 24H264c13.3 0 24-10.7 24-24s-10.7-24-24-24H120z" />
    </symbol>
    <symbol id="download" viewBox="0 0 512 512"><!--!Font
        Awesome Free 6.5.1 by @fontawesome - https://fontawesome.com License -
        https://fontawesome.com/license/free Copyright 2023 Fonticons, Inc.-->
        <path
            d="M288 32c0-17.7-14.3-32-32-32s-32 14.3-32 32V274.7l-73.4-73.4c-12.5-12.5-32.8-12.5-45.3 0s-12.5 32.8 0 45.3l128 128c12.5 12.5 32.8 12.5 45.3 0l128-128c12.5-12.5 12.5-32.8 0-45.3s-32.8-12.5-45.3 0L288 274.7V32zM64 352c-35.3 0-64 28.7-64 64v32c0 35.3 28.7 64 64 64H448c35.3 0 64-28.7 64-64V416c0-35.3-28.7-64-64-64H346.5l-45.3 45.3c-25 25-65.5 25-90.5 0L165.5 352H64zm368 56a24 24 0 1 1 0 48 24 24 0 1 1 0-48z" />
    </symbol>
    <symbol id="comments" viewBox="0 0 640 512"><!--!Font
        Awesome Free 6.5.1 by @fontawesome - https://fontawesome.com License -
        https://fontawesome.com/license/free Copyright 2023 Fonticons, Inc.-->
        <path
            d="M208 352c114.9 0 208-78.8 208-176S322.9 0 208 0S0 78.8 0 176c0 38.6 14.7 74.3 39.6 103.4c-3.5 9.4-8.7 17.7-14.2 24.7c-4.8 6.2-9.7 11-13.3 14.3c-1.8 1.6-3.3 2.9-4.3 3.7c-.5 .4-.9 .7-1.1 .8l-.2 .2 0 0 0 0C1 327.2-1.4 334.4 .8 340.9S9.1 352 16 352c21.8 0 43.8-5.6 62.1-12.5c9.2-3.5 17.8-7.4 25.3-11.4C134.1 343.3 169.8 352 208 352zM448 176c0 112.3-99.1 196.9-216.5 207C255.8 457.4 336.4 512 432 512c38.2 0 73.9-8.7 104.7-23.9c7.5 4 16 7.9 25.2 11.4c18.3 6.9 40.3 12.5 62.1 12.5c6.9 0 13.1-4.5 15.2-11.1c2.1-6.6-.2-13.8-5.8-17.9l0 0 0 0-.2-.2c-.2-.2-.6-.4-1.1-.8c-1-.8-2.5-2-4.3-3.7c-3.6-3.3-8.5-8.1-13.3-14.3c-5.5-7-10.7-15.4-14.2-24.7c24.9-29 39.6-64.7 39.6-103.4c0-92.8-84.9-168.9-192.6-175.5c.4 5.1 .6 10.3 .6 15.5z" />
    </symbol>
</svg>