<svg xmlns="http://www.w3.org/2000/svg">
    <symbol id="house" viewBox="0 0 576 512">
        <!--!Font
        Awesome Free 6.5.1 by @fontawesome - https://fontawesome.com License -
        https://fontawesome.com/license/free Copyright 2023 Fonticons, Inc.-->
        <path
            d="M575.8 255.5c0 18-15 32.1-32 32.1h-32l.7 160.2c0 2.7-.2 5.4-.5 8.1V472c0 22.1-17.9 40-40 40H456c-1.1 0-2.2 0-3.3-.1c-1.4 .1-2.8 .1-4.2 .1H416 392c-22.1 0-40-17.9-40-40V448 384c0-17.7-14.3-32-32-32H256c-17.7 0-32 14.3-32 32v64 24c0 22.1-17.9 40-40 40H160 128.1c-1.5 0-3-.1-4.5-.2c-1.2 .1-2.4 .2-3.6 .2H104c-22.1 0-40-17.9-40-40V360c0-.9 0-1.9 .1-2.8V287.6H32c-18 0-32-14-32-32.1c0-9 3-17 10-24L266.4 8c7-7 15-8 22-8s15 2 21 7L564.8 231.5c8 7 12 15 11 24z" />
    </symbol>
    <symbol id="infinity" viewBox="0 0 640 512">
        <!--!Font
        Awesome Free 6.5.1 by @fontawesome - https://fontawesome.com License -
        https://fontawesome.com/license/free Copyright 2023 Fonticons, Inc.-->
        <path
            d="M0 241.1C0 161 65 96 145.1 96c38.5 0 75.4 15.3 102.6 42.5L320 210.7l72.2-72.2C419.5 111.3 456.4 96 494.9 96C575 96 640 161 640 241.1v29.7C640 351 575 416 494.9 416c-38.5 0-75.4-15.3-102.6-42.5L320 301.3l-72.2 72.2C220.5 400.7 183.6 416 145.1 416C65 416 0 351 0 270.9V241.1zM274.7 256l-72.2-72.2c-15.2-15.2-35.9-23.8-57.4-23.8C100.3 160 64 196.3 64 241.1v29.7c0 44.8 36.3 81.1 81.1 81.1c21.5 0 42.2-8.5 57.4-23.8L274.7 256zm90.5 0l72.2 72.2c15.2 15.2 35.9 23.8 57.4 23.8c44.8 0 81.1-36.3 81.1-81.1V241.1c0-44.8-36.3-81.1-81.1-81.1c-21.5 0-42.2 8.5-57.4 23.8L365.3 256z" />
    </symbol>
    <symbol id="shopify" viewBox="0 0 448 512">
        <!--!Font
        Awesome Free 6.5.1 by @fontawesome - https://fontawesome.com License -
        https://fontawesome.com/license/free Copyright 2023 Fonticons, Inc.-->
        <path
            d="M388.3 104.1a4.7 4.7 0 0 0 -4.4-4c-2 0-37.2-.8-37.2-.8s-21.6-20.8-29.6-28.8V503.2L442.8 472S388.7 106.5 388.3 104.1zM288.7 70.5a116.7 116.7 0 0 0 -7.2-17.6C271 32.9 255.4 22 237 22a15 15 0 0 0 -4 .4c-.4-.8-1.2-1.2-1.6-2C223.4 11.6 213 7.6 200.6 8c-24 .8-48 18-67.3 48.8-13.6 21.6-24 48.8-26.8 70.1-27.6 8.4-46.8 14.4-47.2 14.8-14 4.4-14.4 4.8-16 18-1.2 10-38 291.8-38 291.8L307.9 504V65.7a41.7 41.7 0 0 0 -4.4 .4S297.9 67.7 288.7 70.5zM233.4 87.7c-16 4.8-33.6 10.4-50.8 15.6 4.8-18.8 14.4-37.6 25.6-50 4.4-4.4 10.4-9.6 17.2-12.8C232.2 54.9 233.8 74.5 233.4 87.7zM200.6 24.4A27.5 27.5 0 0 1 215 28c-6.4 3.2-12.8 8.4-18.8 14.4-15.2 16.4-26.8 42-31.6 66.5-14.4 4.4-28.8 8.8-42 12.8C131.3 83.3 163.8 25.2 200.6 24.4zM154.2 244.6c1.6 25.6 69.3 31.2 73.3 91.7 2.8 47.6-25.2 80.1-65.7 82.5-48.8 3.2-75.7-25.6-75.7-25.6l10.4-44s26.8 20.4 48.4 18.8c14-.8 19.2-12.4 18.8-20.4-2-33.6-57.2-31.6-60.8-86.9-3.2-46.4 27.2-93.3 94.5-97.7 26-1.6 39.2 4.8 39.2 4.8L221.4 225.4s-17.2-8-37.6-6.4C154.2 221 153.8 239.8 154.2 244.6zM249.4 82.9c0-12-1.6-29.2-7.2-43.6 18.4 3.6 27.2 24 31.2 36.4Q262.6 78.7 249.4 82.9z" />
    </symbol>
    <symbol id="file-lines" viewBox="0 0 384 512">
        <!--!Font
        Awesome Free 6.5.1 by @fontawesome - https://fontawesome.com License -
        https://fontawesome.com/license/free Copyright 2023 Fonticons, Inc.-->
        <path
            d="M64 464c-8.8 0-16-7.2-16-16V64c0-8.8 7.2-16 16-16H224v80c0 17.7 14.3 32 32 32h80V448c0 8.8-7.2 16-16 16H64zM64 0C28.7 0 0 28.7 0 64V448c0 35.3 28.7 64 64 64H320c35.3 0 64-28.7 64-64V154.5c0-17-6.7-33.3-18.7-45.3L274.7 18.7C262.7 6.7 246.5 0 229.5 0H64zm56 256c-13.3 0-24 10.7-24 24s10.7 24 24 24H264c13.3 0 24-10.7 24-24s-10.7-24-24-24H120zm0 96c-13.3 0-24 10.7-24 24s10.7 24 24 24H264c13.3 0 24-10.7 24-24s-10.7-24-24-24H120z" />
    </symbol>
    <symbol id="download" viewBox="0 0 512 512"><!--!Font
        Awesome Free 6.5.1 by @fontawesome - https://fontawesome.com License -
        https://fontawesome.com/license/free Copyright 2023 Fonticons, Inc.-->
        <path
            d="M288 32c0-17.7-14.3-32-32-32s-32 14.3-32 32V274.7l-73.4-73.4c-12.5-12.5-32.8-12.5-45.3 0s-12.5 32.8 0 45.3l128 128c12.5 12.5 32.8 12.5 45.3 0l128-128c12.5-12.5 12.5-32.8 0-45.3s-32.8-12.5-45.3 0L288 274.7V32zM64 352c-35.3 0-64 28.7-64 64v32c0 35.3 28.7 64 64 64H448c35.3 0 64-28.7 64-64V416c0-35.3-28.7-64-64-64H346.5l-45.3 45.3c-25 25-65.5 25-90.5 0L165.5 352H64zm368 56a24 24 0 1 1 0 48 24 24 0 1 1 0-48z" />
    </symbol>
    <symbol id="comments" viewBox="0 0 640 512"><!--!Font
        Awesome Free 6.5.1 by @fontawesome - https://fontawesome.com License -
        https://fontawesome.com/license/free Copyright 2023 Fonticons, Inc.-->
        <path
            d="M208 352c114.9 0 208-78.8 208-176S322.9 0 208 0S0 78.8 0 176c0 38.6 14.7 74.3 39.6 103.4c-3.5 9.4-8.7 17.7-14.2 24.7c-4.8 6.2-9.7 11-13.3 14.3c-1.8 1.6-3.3 2.9-4.3 3.7c-.5 .4-.9 .7-1.1 .8l-.2 .2 0 0 0 0C1 327.2-1.4 334.4 .8 340.9S9.1 352 16 352c21.8 0 43.8-5.6 62.1-12.5c9.2-3.5 17.8-7.4 25.3-11.4C134.1 343.3 169.8 352 208 352zM448 176c0 112.3-99.1 196.9-216.5 207C255.8 457.4 336.4 512 432 512c38.2 0 73.9-8.7 104.7-23.9c7.5 4 16 7.9 25.2 11.4c18.3 6.9 40.3 12.5 62.1 12.5c6.9 0 13.1-4.5 15.2-11.1c2.1-6.6-.2-13.8-5.8-17.9l0 0 0 0-.2-.2c-.2-.2-.6-.4-1.1-.8c-1-.8-2.5-2-4.3-3.7c-3.6-3.3-8.5-8.1-13.3-14.3c-5.5-7-10.7-15.4-14.2-24.7c24.9-29 39.6-64.7 39.6-103.4c0-92.8-84.9-168.9-192.6-175.5c.4 5.1 .6 10.3 .6 15.5z" />
    </symbol>
    <symbol id="user" viewBox="0 0 512 512"><!--!
        Font Awesome Free 6.4.0 by @fontawesome - https://fontawesome.com License -
        https://fontawesome.com/license/free (Icons: CC BY 4.0, Fonts: SIL OFL 1.1, Code: MIT
        License) Copyright 2023 Fonticons, Inc. -->
        <path
            d="M399 384.2C376.9 345.8 335.4 320 288 320H224c-47.4 0-88.9 25.8-111 64.2c35.2 39.2 86.2 63.8 143 63.8s107.8-24.7 143-63.8zM0 256a256 256 0 1 1 512 0A256 256 0 1 1 0 256zm256 16a72 72 0 1 0 0-144 72 72 0 1 0 0 144z" />
    </symbol>
    <symbol id="github" viewBox="0 0 496 512"><!--!Font
        Awesome Free 6.5.1 by @fontawesome - https://fontawesome.com License -
        https://fontawesome.com/license/free Copyright 2023 Fonticons, Inc.-->
        <path
            d="M165.9 397.4c0 2-2.3 3.6-5.2 3.6-3.3 .3-5.6-1.3-5.6-3.6 0-2 2.3-3.6 5.2-3.6 3-.3 5.6 1.3 5.6 3.6zm-31.1-4.5c-.7 2 1.3 4.3 4.3 4.9 2.6 1 5.6 0 6.2-2s-1.3-4.3-4.3-5.2c-2.6-.7-5.5 .3-6.2 2.3zm44.2-1.7c-2.9 .7-4.9 2.6-4.6 4.9 .3 2 2.9 3.3 5.9 2.6 2.9-.7 4.9-2.6 4.6-4.6-.3-1.9-3-3.2-5.9-2.9zM244.8 8C106.1 8 0 113.3 0 252c0 110.9 69.8 205.8 169.5 239.2 12.8 2.3 17.3-5.6 17.3-12.1 0-6.2-.3-40.4-.3-61.4 0 0-70 15-84.7-29.8 0 0-11.4-29.1-27.8-36.6 0 0-22.9-15.7 1.6-15.4 0 0 24.9 2 38.6 25.8 21.9 38.6 58.6 27.5 72.9 20.9 2.3-16 8.8-27.1 16-33.7-55.9-6.2-112.3-14.3-112.3-110.5 0-27.5 7.6-41.3 23.6-58.9-2.6-6.5-11.1-33.3 2.6-67.9 20.9-6.5 69 27 69 27 20-5.6 41.5-8.5 62.8-8.5s42.8 2.9 62.8 8.5c0 0 48.1-33.6 69-27 13.7 34.7 5.2 61.4 2.6 67.9 16 17.7 25.8 31.5 25.8 58.9 0 96.5-58.9 104.2-114.8 110.5 9.2 7.9 17 22.9 17 46.4 0 33.7-.3 75.4-.3 83.6 0 6.5 4.6 14.4 17.3 12.1C428.2 457.8 496 362.9 496 252 496 113.3 383.5 8 244.8 8zM97.2 352.9c-1.3 1-1 3.3 .7 5.2 1.6 1.6 3.9 2.3 5.2 1 1.3-1 1-3.3-.7-5.2-1.6-1.6-3.9-2.3-5.2-1zm-10.8-8.1c-.7 1.3 .3 2.9 2.3 3.9 1.6 1 3.6 .7 4.3-.7 .7-1.3-.3-2.9-2.3-3.9-2-.6-3.6-.3-4.3 .7zm32.4 35.6c-1.6 1.3-1 4.3 1.3 6.2 2.3 2.3 5.2 2.6 6.5 1 1.3-1.3 .7-4.3-1.3-6.2-2.2-2.3-5.2-2.6-6.5-1zm-11.4-14.7c-1.6 1-1.6 3.6 0 5.9 1.6 2.3 4.3 3.3 5.6 2.3 1.6-1.3 1.6-3.9 0-6.2-1.4-2.3-4-3.3-5.6-2z" />
    </symbol>
    <symbol id="signup" viewBox="0 0 640 512"><!--!Font
        Awesome Free 6.5.1 by @fontawesome - https://fontawesome.com License -
        https://fontawesome.com/license/free Copyright 2023 Fonticons, Inc.-->
        <path
            d="M96 128a128 128 0 1 1 256 0A128 128 0 1 1 96 128zM0 482.3C0 383.8 79.8 304 178.3 304h91.4C368.2 304 448 383.8 448 482.3c0 16.4-13.3 29.7-29.7 29.7H29.7C13.3 512 0 498.7 0 482.3zM504 312V248H440c-13.3 0-24-10.7-24-24s10.7-24 24-24h64V136c0-13.3 10.7-24 24-24s24 10.7 24 24v64h64c13.3 0 24 10.7 24 24s-10.7 24-24 24H552v64c0 13.3-10.7 24-24 24s-24-10.7-24-24z" />
    </symbol>
    <symbol id="signin" viewBox="0 0 512 512"><!--!Font
        Awesome Free 6.5.1 by @fontawesome - https://fontawesome.com License -
        https://fontawesome.com/license/free Copyright 2023 Fonticons, Inc.-->
        <path
            d="M217.9 105.9L340.7 228.7c7.2 7.2 11.3 17.1 11.3 27.3s-4.1 20.1-11.3 27.3L217.9 406.1c-6.4 6.4-15 9.9-24 9.9c-18.7 0-33.9-15.2-33.9-33.9l0-62.1L32 320c-17.7 0-32-14.3-32-32l0-64c0-17.7 14.3-32 32-32l128 0 0-62.1c0-18.7 15.2-33.9 33.9-33.9c9 0 17.6 3.6 24 9.9zM352 416l64 0c17.7 0 32-14.3 32-32l0-256c0-17.7-14.3-32-32-32l-64 0c-17.7 0-32-14.3-32-32s14.3-32 32-32l64 0c53 0 96 43 96 96l0 256c0 53-43 96-96 96l-64 0c-17.7 0-32-14.3-32-32s14.3-32 32-32z" />
    </symbol>
    <symbol id="password" viewBox="0 0 512 512"><!--!Font
        Awesome Free 6.5.1 by @fontawesome - https://fontawesome.com License -
        https://fontawesome.com/license/free Copyright 2024 Fonticons, Inc.-->
        <path
            d="M336 352c97.2 0 176-78.8 176-176S433.2 0 336 0S160 78.8 160 176c0 18.7 2.9 36.8 8.3 53.7L7 391c-4.5 4.5-7 10.6-7 17v80c0 13.3 10.7 24 24 24h80c13.3 0 24-10.7 24-24V448h40c13.3 0 24-10.7 24-24V384h40c6.4 0 12.5-2.5 17-7l33.3-33.3c16.9 5.4 35 8.3 53.7 8.3zM376 96a40 40 0 1 1 0 80 40 40 0 1 1 0-80z" />
    </symbol>
    <symbol id="user2" viewBox="0 0 448 512"><!--!Font
        Awesome Free 6.5.1 by @fontawesome - https://fontawesome.com License -
        https://fontawesome.com/license/free Copyright 2024 Fonticons, Inc.-->
        <path
            d="M224 256A128 128 0 1 0 224 0a128 128 0 1 0 0 256zm-45.7 48C79.8 304 0 383.8 0 482.3C0 498.7 13.3 512 29.7 512H418.3c16.4 0 29.7-13.3 29.7-29.7C448 383.8 368.2 304 269.7 304H178.3z" />
    </symbol>
    <symbol id="article" viewBox="0 0 512 512"><!--!Font
        Awesome Free 6.5.1 by @fontawesome - https://fontawesome.com License -
        https://fontawesome.com/license/free Copyright 2024 Fonticons, Inc.-->
        <path
            d="M96 96c0-35.3 28.7-64 64-64H448c35.3 0 64 28.7 64 64V416c0 35.3-28.7 64-64 64H80c-44.2 0-80-35.8-80-80V128c0-17.7 14.3-32 32-32s32 14.3 32 32V400c0 8.8 7.2 16 16 16s16-7.2 16-16V96zm64 24v80c0 13.3 10.7 24 24 24H296c13.3 0 24-10.7 24-24V120c0-13.3-10.7-24-24-24H184c-13.3 0-24 10.7-24 24zm208-8c0 8.8 7.2 16 16 16h48c8.8 0 16-7.2 16-16s-7.2-16-16-16H384c-8.8 0-16 7.2-16 16zm0 96c0 8.8 7.2 16 16 16h48c8.8 0 16-7.2 16-16s-7.2-16-16-16H384c-8.8 0-16 7.2-16 16zM160 304c0 8.8 7.2 16 16 16H432c8.8 0 16-7.2 16-16s-7.2-16-16-16H176c-8.8 0-16 7.2-16 16zm0 96c0 8.8 7.2 16 16 16H432c8.8 0 16-7.2 16-16s-7.2-16-16-16H176c-8.8 0-16 7.2-16 16z" />
    </symbol>
</svg>